<?xml version="1.0" encoding="utf-8"?>
<!-- Generator: Adobe Illustrator 18.0.0, SVG Export Plug-In . SVG Version: 6.00 Build 0)  -->
<!DOCTYPE svg PUBLIC "-//W3C//DTD SVG 1.1//EN" "http://www.w3.org/Graphics/SVG/1.1/DTD/svg11.dtd" [
	<!ENTITY ns_flows "http://ns.adobe.com/Flows/1.0/">
	<!ENTITY ns_extend "http://ns.adobe.com/Extensibility/1.0/">
	<!ENTITY ns_ai "http://ns.adobe.com/AdobeIllustrator/10.0/">
	<!ENTITY ns_graphs "http://ns.adobe.com/Graphs/1.0/">
]>
<svg version="1.1" id="Layer_1" xmlns:x="&ns_extend;" xmlns:i="&ns_ai;" xmlns:graph="&ns_graphs;"
	 xmlns="http://www.w3.org/2000/svg" xmlns:xlink="http://www.w3.org/1999/xlink" xmlns:a="http://ns.adobe.com/AdobeSVGViewerExtensions/3.0/"
	 x="0px" y="0px" viewBox="0 0 1400 980" enable-background="new 0 0 1400 980" xml:space="preserve">
<g>
	<rect y="0" fill="#E2E2DD" width="1400" height="980"/>
	<g>
		<g>
			<g>
				<polygon fill="#2A2623" points="225.2,242.7 213.6,229.3 215.8,188.5 222,188.5 222,182.5 236.1,171.9 266.3,175.7 279.4,195.6 
					274.7,210.6 266.9,218.4 				"/>
				<polygon fill="#FDC888" points="222.7,256.4 223.9,245.8 223.9,228.7 219.2,228.7 215.8,225.2 215.8,212.5 223.6,212.5 
					224.2,218.1 228.6,218.1 230.5,196.2 233,196.2 233,192.8 262,203.1 262,200 272.9,204.4 267.3,248.6 253.5,249 253.5,254.6 
					248.5,276.1 232.3,276.1 				"/>
				<polygon fill="#E4B075" points="253.5,254.6 253.5,249 267.3,248.6 267.3,248.6 237.9,247.4 228.3,238.3 239.5,276.1 249.3,273 
									"/>
				<path fill="#F9F4E5" d="M208.3,259.2h9.4l1.6-5.3h5.9l10.9,18.7h7.8l9.7-18.1h7.2l1.6,6.9h9.7c0,0,3.4,35.9,3.4,39.3
					c0,3.4-4.2,20.1-5.3,21.2c-1.1,1.1-6.9,7.2-12.2,9.7c-5.3,2.5-15.6,5.6-19.6,7.2c-4.1,1.6-7.5,2.2-7.5,2.2s-22.6-19.5-23.7-20.6
					c-1.1-1.1-6.5-15-6.5-18.1S208.3,259.2,208.3,259.2z"/>
				<path fill="#D6D1C1" d="M208.9,269.2h9.7l7.8,17.5l8.7-8.4l11.1,3.6l6.1,6.1l11.5-11.5c0,0,4.4,17.8,4.4,21.2s3.4,14.7-0.6,18.7
					c-4.1,4.1-0.9,9.4-12.5,15c-11.5,5.6-34.6,9-34.6,9s-15.3-23.1-15.9-25.3C204,312.9,208.9,269.2,208.9,269.2z"/>
				<polygon fill="#312A27" points="236.1,272.6 232,281.4 235.8,284.2 227,327.8 233.9,343.4 251.4,330 243.3,284.8 246.2,281.8 
					243.9,272.6 				"/>
				<polygon fill="#403734" points="184.4,262.4 190.2,259.2 210.5,259.2 214.2,308.8 237.5,332 260.7,308.8 263.8,259.8 
					274.4,261.4 289.4,264.8 294.5,267.9 294.5,440.1 159.4,440.1 159.4,342.2 162.8,322.5 				"/>
				<polygon fill="#312A27" points="188.1,341.8 183.5,333 196.8,306.9 191.1,259.2 190.2,259.2 184.4,262.4 162.8,322.5 
					159.4,342.2 159.4,440.1 188.1,440.1 				"/>
				<polygon fill="#C8A878" points="226.1,417 218.3,405.5 201.8,405.5 200.2,412.9 212.7,416.7 				"/>
				<polygon fill="#BBB5B4" points="179.9,385.7 179.9,378.7 231.5,378.7 231.5,385.7 207.1,407.7 207.1,436.5 225.5,437.9 
					226.4,438.8 185.1,438.8 186,437.9 204.4,436.5 204.4,407.7 				"/>
				<polygon fill="#00A86A" points="228.7,384.7 181.7,384.7 205.5,405.5 				"/>
				<polygon fill="#C8A878" points="205,350.1 216.3,354.8 217.4,366.3 213.4,367.9 200.8,355.7 				"/>
				<g>
					<path fill="#00A86A" d="M211.9,363.4c3.4,0,6.1,2.7,6.1,6.1c0,0.6-0.2,1.1-0.3,1.6h-7.2l3.9,3.9c-0.8,0.4-1.6,0.6-2.5,0.6
						c-3.4,0-6.1-2.7-6.1-6.1C205.8,366.1,208.6,363.4,211.9,363.4z"/>
					<path fill="#1C804E" d="M211.9,363.4c0.2,0,0.5,0.1,0.7,0.1c-3,0.4-5.4,2.8-5.4,5.9c0,3.1,2.3,5.5,5.3,5.9
						c-0.2,0-0.4,0.2-0.7,0.2c-3.4,0-6.1-2.7-6.1-6.1C205.8,366.1,208.6,363.4,211.9,363.4z"/>
					<path fill="#A0BC76" d="M212.1,365.7c-0.3,0.8,0.3,1.8,1.3,2.2c1,0.4,2.1,0.1,2.4-0.7c0.3-0.8-0.3-1.8-1.3-2.2
						C213.5,364.6,212.4,364.9,212.1,365.7z"/>
				</g>
				<polygon fill="#F9F4E5" points="229.8,418.2 235.1,411.7 249.2,412.9 249.2,409.8 286.9,393.9 298.1,358.1 291.9,300.7 
					291.6,267.3 309,270.8 322.8,312.5 328.1,396.7 319.3,422 310,429.8 284.4,438.2 233.9,439.7 228.2,434 				"/>
				<polygon fill="#D6D1C1" points="310,429.8 319.3,422 328.1,396.7 322.8,312.5 318,298.1 321.2,390.5 314.3,417.6 286.9,432.9 
					240.4,435.4 237.3,435.4 238.3,429.8 234.2,417.3 229.3,423.8 228.2,434 233.9,439.7 284.4,438.2 				"/>
				<polygon fill="#FDC888" points="219.2,410.1 199,410.1 195.5,413.6 191.8,413.6 190.5,418.5 187.9,418.5 187.9,427.3 
					191.5,427.3 191.5,433.5 195.2,437.2 223,437.2 234.2,430.4 234.2,417.3 				"/>
				<polygon fill="#F9F4E5" points="179.6,347.5 177.8,338.7 167.5,334.1 183.4,309.1 190.9,296.6 186.8,262.7 172.8,261.1 
					168.9,265 112.9,311.9 105.1,311.9 93.6,330 107.6,354.6 115.4,354.6 171.7,365.9 173.5,364.1 				"/>
				<polygon fill="#D6D1C1" points="171.5,359.3 110.7,350.3 94.1,330.9 107.6,354.6 115.4,354.6 171.7,365.9 173.5,364.1 
					174.8,360.4 				"/>
				<polygon fill="#FDC888" points="187.5,344.3 205,344.3 215.3,359.7 216.5,365.5 215.1,367.9 210.4,360.9 200.8,355.7 
					208.3,363.2 212.1,368.8 210.5,371 206,368.2 194.1,362.5 202.2,370.7 209.4,373.9 209.4,377 199.9,375.1 189.8,368.6 
					199.4,378.7 206.9,378.7 206.7,381.4 197.6,383.1 182.6,373 167.6,363.2 174.2,345.7 				"/>
				<polygon fill="#D6D1C1" points="112.3,322.5 122.9,320.3 141.9,328.4 167.7,333.7 183.4,309.1 190.9,296.6 188.8,279.3 
					187.4,280.1 182.8,272.3 180.9,281.4 174,274.5 180.3,283.2 182.5,297.6 149.7,323.8 144.4,321.3 144.4,325.9 127.9,313.5 
					121.3,315.8 127.1,315.8 131.9,320.6 120.1,318.5 				"/>
			</g>
			<rect x="110.4" y="438.3" fill="#9E6D43" width="223.6" height="7.9"/>
		</g>
		<g>
			<g>
				<polygon fill="#F9F4E5" points="275.7,610.5 271,630.2 281,640.8 279.1,659.5 270.7,651.6 249.5,631.7 232.6,625.2 227.6,641.7 
					253.8,694.4 294.8,698.8 316.9,675 305.3,628 				"/>
				<path fill="#D6D1C1" d="M253.8,694.4l-26.2-52.7l5-16.5l4.7,1.8l-4.1,11.9l18.7,33l9.4-1.6l-5.6,5.6v5.9l4.1-4.1l8.1-2.8
					l-6.5,6.5l-3.1,6.6h21.7v-8.4l8,5.5l-6.1-17.3l10,10l-4.5-13.6l9.4,13.1l1.9-41.8c0,0,4.1,0,8.8,0l9.7,39.2l-22.1,23.8
					L253.8,694.4z"/>
				<polygon fill="#F9F4E5" points="217.4,623.3 215.8,617.1 204,612.7 176.5,612.7 176.5,624.6 216.1,658.2 219.2,640.5 				"/>
				<polygon fill="#F9F4E5" points="257.3,797.3 257.3,672.9 232.6,625.2 217.6,623.1 216.1,652.3 178.1,621.8 160.3,621.8 
					140.6,639.6 140.6,797.3 				"/>
				<g  a:adobe-knockout="true">
					<circle fill="#453B38"  a:adobe-knockout="false" cx="212.6" cy="644.9" r="2.2"/>
					<circle fill="#453B38"  a:adobe-knockout="false" cx="212.6" cy="672.8" r="2.2"/>
					<circle fill="#453B38"  a:adobe-knockout="false" cx="212.6" cy="700.7" r="2.2"/>
					<circle fill="#453B38"  a:adobe-knockout="false" cx="212.6" cy="728.6" r="2.2"/>
					<circle fill="#453B38"  a:adobe-knockout="false" cx="212.6" cy="756.4" r="2.2"/>
					<circle fill="#453B38"  a:adobe-knockout="false" cx="212.6" cy="784.3" r="2.2"/>
				</g>
				<polygon fill="#D6D1C1" points="140.6,797.3 140.6,639.6 148.2,632.7 167.8,642.3 167.8,770.2 209.6,789.2 227.6,789.2 
					248.5,781.4 226.7,795.1 205.5,794.2 210.3,797.3 				"/>
				<polygon fill="#FDC888" points="299.4,605.6 301.1,599.2 295.3,597.4 295.3,593.1 288.1,593.1 288.1,590.6 280.7,589 
					278.9,587.3 271.1,590 260.4,608.3 260.4,614.9 266.9,621.5 271.8,622.6 				"/>
				<polygon fill="#575050" points="298.4,602.1 269.7,589.3 256,602.1 274.1,627.6 				"/>
				<polygon fill="#FDC888" points="297.2,602.7 289.7,602.1 289.7,600.7 283.8,597.8 283.8,595.6 276.9,595.6 277.6,592.8 
					270.7,592.8 270.7,589.8 277.8,590.9 298.1,600.8 				"/>
				<g>
					<polygon fill="#8F8584" points="329.9,636.7 299.4,600.9 285.6,600.6 270.4,615.8 273.2,628.6 314.9,660.1 329.3,656.2 
						335.2,648 					"/>
					<polygon fill="#776E6C" points="312.1,658 312.1,645.1 319.9,635.8 329.6,636.4 329.9,636.7 335.2,648 329.3,656.2 
						314.9,660.1 					"/>
				</g>
				<polygon fill="#FDC888" points="280.7,686.3 287.5,673.8 284.4,660.7 291.6,654.2 299,654.2 313.7,641.7 316.2,643.3 
					321.2,643.3 324.6,646.7 322.4,652.3 326.3,656.2 321.8,660.7 324.3,667 305.9,686.9 301.2,685.7 288,701.1 278.5,691.6 				"/>
				<polygon fill="#F9F4E5" points="300.6,691 280.7,678.2 274.7,690.4 264.1,691.9 235.8,717.5 231.4,713.1 226.7,717.8 221.9,713 
					207.7,716.2 165.3,641.7 141.9,637.4 125.4,665.7 135.4,708.4 204.9,761.8 209.9,766.7 232.6,762.1 244.5,755.8 291.9,715.3 
					293.1,701 301.5,690 				"/>
				<polygon fill="#D6D1C1" points="151.2,639.1 133.2,667.6 143.5,705 208.6,755.2 211.4,743.4 214.9,753.3 218,734 221.1,756.1 
					227,738.1 227,758 237.3,750.5 283.5,714.1 286.6,703.5 281.9,694.4 287.5,697.8 295.1,687.4 300.6,691 301.5,690 293.1,701 
					291.9,715.3 244.5,755.8 232.6,762.1 209.9,766.7 204.9,761.8 135.4,708.4 125.4,665.7 141.9,637.4 				"/>
				<polygon fill="#2A2623" points="224.2,577.2 230.9,571.3 234.2,557.5 225.3,540.1 197.6,527 168.4,537 168.4,546.9 159.6,546.9 
					157.8,579 176.1,604.3 188.2,605.9 				"/>
				<polygon fill="#FDC888" points="208.3,636.1 202.4,626.8 180.6,612.7 180.6,593.1 174.6,595 170.7,591.1 170.7,571.9 
					179.9,574.7 181.2,563.5 202.1,570.3 200.2,565.6 225.8,571.6 222.7,609 209.6,615.8 				"/>
				<polygon fill="#D8A976" points="205.9,613.8 185.8,605.1 182.5,599 186.5,614 190.4,619.1 202.4,626.8 208.3,636.1 209.6,615.8 
					221.7,609.5 				"/>
				<polygon fill="#575050" points="203.5,635 210.1,641.5 214.1,627.2 217.3,630.3 212.6,647.1 201.6,640.7 				"/>
				<polygon fill="#575050" points="213.8,638.1 224.7,640.3 222.7,623.8 229.4,622.5 235.5,628.6 232.2,651.8 211.9,641.2 				"/>
			</g>
			<g>
				<rect x="92.3" y="794" fill="#9E6D43" width="223.6" height="7.9"/>
			</g>
		</g>
		<g>
			<g>
				<polygon fill="#2A2623" points="1142.6,588.3 1137,583.4 1134,542.3 1135.6,530.1 1134.4,525.9 1163.7,503.4 1204.1,490.6 
					1204.1,498.1 1192.2,503.7 1208.3,507.4 1208.3,513.3 1197.1,515.6 1208.1,521 1208.1,525.4 1192.7,526.8 1196.2,530.3 
					1195,537.6 1191.6,534.2 1192.9,543.7 1190.3,579.7 1182,588 				"/>
				<polygon fill="#FDC888" points="1177.7,606.2 1177.7,595.3 1186.6,588.1 1186.6,572.5 1192,571.3 1192,552.9 1185.8,552.9 
					1185.8,546 1169.9,549.1 1173,546 1155.9,548.8 1138.1,547.9 1138.1,553.2 1130.9,553.2 1130.9,571.6 1138.4,573.8 
					1138.4,588.1 1145.6,595.3 1145.6,609 1163.7,640.5 				"/>
				<polygon fill="#D6A670" points="1167.4,609.3 1177.7,595.3 1177.7,606.2 1163.7,640.5 1145.6,609 1145.6,595.6 1159,609.3 				
					"/>
				<polygon fill="#F9F4E5" points="1217.9,608.7 1211.7,604.3 1191.3,604.3 1186.4,599.6 1177.7,599.6 1164.6,630.8 1145,600.6 
					1137.8,600.6 1126.3,610.6 1126.3,610.6 1103.8,627.3 1103.8,797.3 1225.7,797.3 1225.7,662.9 				"/>
				<polygon fill="#D6D1C1" points="1174.2,626.9 1180,636.7 1190.3,609.6 1180.7,642.8 1171.4,629.7 				"/>
				<polygon fill="#D6D1C1" points="1152.4,626.9 1146.6,636.7 1136.3,609.6 1145.9,642.8 1155.2,629.7 				"/>
				<polygon fill="#2A2623" points="1177.4,781.3 1169,646.1 1174,636.4 1169.5,630 1157.6,630.4 1152.8,635.8 1159,647 
					1153.7,777.2 1167.1,793.4 				"/>
				<path fill="#D6D1C1" d="M1222.8,642.5l-8.3,2.6v152.2h11.2V662.9L1222.8,642.5z M1103.8,682.3v115h7.7l2-128.1
					C1113.5,669.2,1108.5,675.7,1103.8,682.3z"/>
				<polygon fill="#F9F4E5" points="1207.3,658.6 1214.5,645.2 1214.5,607.1 1222.3,607.1 1288.4,616.5 1298.1,616.5 1306.5,624.9 
					1303.4,653.6 1291.2,657.9 1228.5,684.4 				"/>
				<polygon fill="#D6D1C1" points="1214.5,645.2 1214.5,635.5 1262.2,629.3 1277.2,622.4 1266.9,632.4 1283.7,625.2 1292.8,627.7 
					1284,627.7 1274.7,632.4 1291.5,634.9 1294.6,641.4 1289.6,636.4 1252.5,635.8 1213.2,647.5 				"/>
				<polygon fill="#2F5A44" points="1224.8,651.7 1265.3,625.2 1274.4,625.2 1291.5,642.3 1289,650.4 1240.4,680.7 1227.6,673.2 
					1197.7,690.4 1200.6,693.3 1195.5,695.7 1187.1,684.1 1190.5,684.1 1193.1,686.8 1226,667.9 				"/>
				<polygon fill="#FDC888" points="1224.8,651.7 1217.3,650.4 1215.1,653.9 1210.8,653.9 1208.4,656.2 1203.9,656.2 1201.1,660.4 
					1197,660.4 1195.5,681.9 1205.8,693.5 1208.9,690.4 1213.9,691.9 1217.5,688.3 1223.5,690.4 1227,684.4 1232,684.4 
					1236.3,680.1 1227.9,670.1 				"/>
				<polygon fill="#82706C" points="1149.9,716.5 1155,708.5 1170.1,706.1 1177.8,715.2 1171,719.1 				"/>
				<polygon fill="#A49491" points="1197.8,708.5 1156.7,704.9 1159.3,748.3 1184.9,750.5 				"/>
				<g>
					<polygon fill="#FDC888" points="1163.4,709.9 1202.4,714.7 1199.8,720.6 1195.8,720.2 1195.2,726.3 1190.5,725.9 1189.8,733.6 
						1184.4,733.1 1183.6,742.9 1157.6,740.6 1141.6,729.4 1144.3,713.7 					"/>
				</g>
				<polygon fill="#F9F4E5" points="1152.8,712 1143.1,733.7 1103.5,756.5 1076.1,750.5 1078.6,714.7 1077.9,648.6 1108.2,623.6 
					1113.5,628.6 1113.5,671 1111.3,676.6 1111.3,709.7 1144.7,701 1154.9,705 1157,710.5 				"/>
				<polygon fill="#D6D1C1" points="1102.6,749.6 1087.9,747.7 1087.9,742.1 1105.1,717.8 1087.1,735.7 1085.7,734.3 1094.1,717.8 
					1082.5,729.5 1082.5,655.8 1084.2,657 1078.7,648 1077.9,648.6 1078.6,714.7 1076.1,750.5 1103.5,756.5 1143.1,733.7 
					1145.9,727.4 				"/>
				<polygon fill="#2A2623" points="1169.3,633.7 1174.2,629.3 1175.1,632.8 1169.6,638.3 				"/>
				<polygon fill="#2A2623" points="1157.6,633.7 1152.7,629.3 1151.8,632.8 1157.3,638.3 				"/>
				<polygon fill="#FFD368" points="1272.3,660.8 1260.5,655.7 1252.3,647.5 1249.3,635.7 1231.5,647.3 1233.1,658 1238,666.7 
					1251.3,673.9 				"/>
				<polygon fill="#F47857" points="1147.9,519.9 1162.6,512.9 1175.5,513.9 1189.3,527.7 1190.9,523.7 1177.5,510.2 1163.6,510.2 
					1148.4,517.8 				"/>
			</g>
			<g>
				<rect x="1050.7" y="794" fill="#9E6D43" width="223.6" height="7.9"/>
			</g>
		</g>
		<g>
			<g>
				<polygon fill="#FDC888" points="963.6,717.6 961.3,723.4 955.4,723.9 953.5,720.7 				"/>
				<polygon fill="#F9F4E5" points="798.8,614.3 783.5,623.9 783.5,629.6 780.1,636.4 782,640.8 753.9,695.3 757.3,775.2 
					786.7,775.2 786.7,696.9 800.1,675.1 800.1,642 807.2,614.6 				"/>
				<path fill="#F9F4E5" d="M882.4,609H873l-2.8-8.4h-5.6l-29.6,0.3h-3.7l-5.3,12.2h-5.6l-2.2,32.4c0,0,9.2,27,10.3,28.1
					c1.1,1.1,17.8,15.9,17.8,15.9s7.6,1.7,9,0.3c1.4-1.4,16.5-34,16.5-36.8C871.8,650.1,882.4,609,882.4,609z"/>
				<polygon fill="#F9F4E5" points="917.6,614.6 901.7,608 878.6,609 853.4,680.4 824.4,633 824.4,613 807.5,613 797.9,642.3 
					797.9,796.1 926,796.1 926,657.4 				"/>
				<polygon fill="#D6D1C1" points="894.8,623.9 902.6,608.4 917.6,614.6 926,657.4 926,796.1 896.3,796.1 894.8,795.8 				"/>
				<polygon fill="#F9F4E5" points="936,690 960,678.8 904.2,657.6 898.9,644.5 905.1,614.6 917.6,614.6 982.5,661.7 990.6,661.7 
					992.1,667 997.1,668.5 1003.3,695.3 997.7,704.7 959.4,717.8 				"/>
				<path fill="#D6D1C1" d="M962.5,711.9l27.1-10l6.9-8.4l3.8-11.1l3,13l-5.6,9.4l-34.3,11.7C962.8,714,962.5,711.9,962.5,711.9z"/>
				<path fill="#B76FAE" d="M903.7,726.1l-8.9,6.4l-5,8.3l-5.6,2.5l0.8,3.7l13.4-0.5l7.8-4.2c0,0,1.5-4.6,2-5.1
					c0.5-0.5,6.7-4.7,6.7-4.7L903.7,726.1z"/>
				<polygon fill="#82706C" points="962.2,682.9 903.3,701.6 898,715 900.8,730.9 916.1,736.8 978.1,714.7 982.5,706.6 973.9,682.7 
									"/>
				<polygon fill="#FDC888" points="956.1,685.5 945.8,681.8 921.5,691.1 919.2,708 944.4,703.3 947.7,690.2 				"/>
				<polygon fill="#FDC888" points="955.6,721.5 946.8,718.3 940.7,722.5 952.8,728.1 961.3,723.4 				"/>
				<polygon fill="#D2CAC6" points="926.9,732.9 920.5,735.2 910.7,726.9 906.8,709.6 911.2,699.1 917.4,697.1 911.9,708.7 
					916.6,725.7 				"/>
				<polygon fill="#D6D1C1" points="952.2,669.8 958.5,664.2 975.3,662.3 963.4,665.7 958.3,670.9 964.7,667.6 976.2,667.6 
					969.4,669.5 975.6,672.6 967.8,671.6 959.4,678.6 904.2,657.6 899.7,646.4 				"/>
				<polygon opacity="0.85" fill="#BBB5B4" points="859.6,744.1 859.6,737.1 911.2,737.1 911.2,744.1 886.7,766.1 886.7,795 
					905.1,796.4 906.1,797.3 864.8,797.3 865.7,796.4 884.1,795 884.1,766.1 				"/>
				<polygon fill="#B76FAE" points="908.4,743.2 861.3,743.2 885.2,763.9 				"/>
				<path fill="#00A86A" d="M868.3,729.5c3.4,0,6.1,2.7,6.1,6.1c0,0.6-0.2,1.1-0.3,1.6h-7.2l3.9,3.9c-0.8,0.4-1.6,0.6-2.5,0.6
					c-3.4,0-6.1-2.7-6.1-6.1C862.3,732.2,865,729.5,868.3,729.5z"/>
				<path fill="#1C804E" d="M868.3,729.5c0.2,0,0.5,0.1,0.7,0.1c-3,0.4-5.4,2.8-5.4,5.9c0,3.1,2.3,5.5,5.3,5.9
					c-0.2,0-0.4,0.2-0.7,0.2c-3.4,0-6.1-2.7-6.1-6.1C862.3,732.2,865,729.5,868.3,729.5z"/>
				<path fill="#A0BC76" d="M868.5,731.9c-0.3,0.8,0.3,1.8,1.3,2.2c1,0.4,2.1,0.1,2.4-0.7c0.3-0.8-0.3-1.8-1.3-2.2
					C869.9,730.7,868.8,731.1,868.5,731.9z"/>
				<polygon fill="#FDC888" points="779.8,781.1 790.6,791.8 801,791.8 795.6,797.2 784.8,797.2 777.3,793.9 773.9,797.3 
					733.7,797.3 733.7,793.6 762,778.3 762,773.9 779.8,773.9 				"/>
				<polygon fill="#453B38" points="870.5,575.6 877.7,560.3 878.6,527.9 874.6,532 872.7,522.6 816.6,521.7 811.9,529.5 
					819.7,541.3 859.9,575.6 869.3,577.5 				"/>
				<polygon fill="#FDC888" points="870.5,566.6 878.9,566.6 880.2,583.7 870.2,582.2 864.3,598.1 864.3,616.5 848.4,624.4 
					835.3,616.8 835.3,600.9 825,600.9 820.6,561.9 822.5,556 819.2,552.7 825.3,534.8 862.7,534.8 865.8,556.3 862.4,571.6 
					865.4,574.5 				"/>
				<polygon fill="#D6A670" points="835.3,615.9 835.3,600.9 852.4,600.9 861,592.3 861,603.7 848.1,624.9 				"/>
				<polygon fill="#D6D1C1" points="778.7,698.5 778.7,775.2 786.7,775.2 786.7,696.9 800.1,675.1 800.1,664.4 				"/>
				<circle fill="#ED1C24" cx="848.7" cy="623.8" r="5.1"/>
				<polygon fill="#ED1C24" points="847.3,621.8 832.3,614.9 827.2,620.4 827.2,631.4 833.9,631.4 847,625.5 				"/>
				<polygon fill="#ED1C24" points="854,621.8 868.9,614.9 874.1,620.4 874.1,631.4 867.4,631.4 854.3,625.5 				"/>
				<polygon fill="#453B38" points="822.7,580 829.2,573.4 842.9,573.4 851,578.4 862.4,571.6 866.6,574.5 861,592.3 851.6,601.7 
					822,601.7 819.8,580.3 				"/>
				<g  a:adobe-knockout="true">
					<path fill="#453B38"  a:adobe-knockout="false" d="M846.9,638.6c0,0.9-0.8,1.7-1.7,1.7c-0.9,0-1.7-0.8-1.7-1.7
						c0-0.9,0.8-1.7,1.7-1.7C846.2,636.9,846.9,637.7,846.9,638.6z"/>
					<path fill="#453B38"  a:adobe-knockout="false" d="M846.9,660.1c0,0.9-0.8,1.7-1.7,1.7c-0.9,0-1.7-0.8-1.7-1.7
						c0-0.9,0.8-1.7,1.7-1.7C846.2,658.4,846.9,659.2,846.9,660.1z"/>
					<path fill="#453B38"  a:adobe-knockout="false" d="M846.9,681.6c0,0.9-0.8,1.7-1.7,1.7c-0.9,0-1.7-0.8-1.7-1.7
						c0-0.9,0.8-1.7,1.7-1.7C846.2,679.9,846.9,680.7,846.9,681.6z"/>
					<path fill="#453B38"  a:adobe-knockout="false" d="M846.9,703.1c0,0.9-0.8,1.7-1.7,1.7c-0.9,0-1.7-0.8-1.7-1.7
						c0-0.9,0.8-1.7,1.7-1.7C846.2,701.4,846.9,702.2,846.9,703.1z"/>
					<path fill="#453B38"  a:adobe-knockout="false" d="M846.9,724.6c0,0.9-0.8,1.7-1.7,1.7c-0.9,0-1.7-0.8-1.7-1.7
						c0-0.9,0.8-1.7,1.7-1.7C846.2,722.9,846.9,723.7,846.9,724.6z"/>
					<path fill="#453B38"  a:adobe-knockout="false" d="M846.9,746.1c0,0.9-0.8,1.7-1.7,1.7c-0.9,0-1.7-0.8-1.7-1.7
						c0-0.9,0.8-1.7,1.7-1.7C846.2,744.4,846.9,745.2,846.9,746.1z"/>
					<path fill="#453B38"  a:adobe-knockout="false" d="M846.9,767.6c0,0.9-0.8,1.7-1.7,1.7c-0.9,0-1.7-0.8-1.7-1.7
						c0-0.9,0.8-1.7,1.7-1.7C846.2,765.9,846.9,766.7,846.9,767.6z"/>
					<path fill="#453B38"  a:adobe-knockout="false" d="M846.9,789.2c0,0.9-0.8,1.7-1.7,1.7c-0.9,0-1.7-0.8-1.7-1.7
						c0-0.9,0.8-1.7,1.7-1.7C846.2,787.4,846.9,788.2,846.9,789.2z"/>
				</g>
			</g>
			<g>
				<rect x="715.4" y="794" fill="#9E6D43" width="308.3" height="7.9"/>
			</g>
		</g>
		<g>
			<g>
				<polygon fill="#453B38" points="527.1,223.4 519.2,217.8 517.8,197.2 517.8,184.4 519.7,179.1 517.8,163.5 547.4,147 
					567.7,155.7 583.6,171.6 582,177.9 585.4,181.3 585.4,186.6 578.1,193.9 578.1,222.4 				"/>
				<polygon fill="#FDC888" points="532.1,248.9 532.1,238 523.2,230.9 523.2,215.3 517.8,214 517.8,195.6 524,195.6 524,188.8 
					539.9,191.9 536.8,188.8 553.9,191.6 571.7,190.6 571.7,195.9 578.9,195.9 578.9,214.3 571.4,216.5 571.4,230.9 564.2,238 
					564.2,251.7 546.2,283.2 				"/>
				<polygon fill="#D6A670" points="542.4,252.1 532.1,238 532.1,248.9 546.2,283.2 564.2,251.7 564.2,238.3 550.8,252.1 				"/>
				<path fill="#F9F4E5" d="M515.6,249.9l7.8-7.5h8.7l13.1,31.2l19.6-30.2h7.2l11.5,10l5.6,30.9l-11.8,46.5c0,0-2.3,2.3-5,5
					c-2.7,2.6-15,5.6-17.8,5.6c-2.8,0-8.7,3.4-10.6,3.4c-1.9,0-24.6-19.3-24.6-19.3l-17.1-41.8L515.6,249.9z"/>
				<path fill="#D6D1C1" d="M589.2,284.2l-5.6-30.9l-3.3-2.9l-5.1,5.1L561,290.6l-8.6-8.6H543l-12.5,8.4L519,246.6l-3.4,3.3
					l-5.4,13.6l3.5,26l17.6,17.3l16.1-16.1l15.6,12.5c0,0,20.9-10.7,25.3-15.7L589.2,284.2L589.2,284.2z"/>
				<polygon fill="#2A2623" points="532.4,330.9 540.9,288.8 535.9,279.2 538.4,270.8 554.6,270.8 557.1,278.6 550.8,289.8 
					556.1,326.9 542.7,343.1 				"/>
				<polygon fill="#403734" points="491.9,251.4 498.1,247.1 518.7,247.1 523.7,302.6 542.7,336.9 573.3,299.8 575.1,255.5 
					580,250.7 606.1,270 606.1,440.1 484.1,440.1 484.1,305.7 				"/>
				<path fill="#2A2623" d="M484.1,305.7v134.4h11.2V287.9l-8.3-2.6L484.1,305.7z M596.4,311.9l2,128.1h7.7v-115
					C601.4,318.5,596.4,311.9,596.4,311.9z"/>
				<polygon fill="#F9F4E5" points="502.5,301.3 495.3,287.9 495.3,249.9 487.5,249.9 421.4,259.2 411.8,259.2 403.4,267.6 
					406.5,296.3 418.6,300.7 481.3,327.2 				"/>
				<polygon fill="#D6D1C1" points="495.3,287.9 495.3,278.2 447.6,272 432.7,265.2 443,275.1 426.1,268 417.1,270.5 425.8,270.5 
					435.2,275.1 418.3,277.6 415.2,284.2 420.2,279.2 457.3,278.6 496.6,290.3 				"/>
				<polygon fill="#2F5A44" points="485,294.5 444.5,268 435.5,268 418.3,285.1 420.8,293.2 469.5,323.5 482.2,316 512.2,333.1 
					509.2,336.1 514.3,338.4 522.8,326.9 519.3,326.9 516.7,329.5 483.8,310.7 				"/>
				<polygon fill="#FDC888" points="485,294.5 492.5,293.2 494.7,296.6 499.1,296.6 501.4,299 505.9,299 508.7,303.2 512.8,303.2 
					514.3,324.7 504.1,336.2 500.9,333.1 496,334.7 492.4,331.1 486.3,333.1 482.9,327.2 477.9,327.2 473.5,322.8 481.9,312.9 				
					"/>
				<polygon fill="#82706C" points="560,359.3 554.8,351.2 539.7,348.8 532,358 538.8,361.8 				"/>
				<polygon fill="#D980A2" points="512,351.2 553.2,347.6 550.5,391 524.9,393.3 				"/>
				<g>
					<polygon fill="#FDC888" points="546.5,352.6 507.5,357.4 510,363.3 514.1,363 514.6,369 519.3,368.6 520,376.4 525.4,375.9 
						526.3,385.7 552.2,383.4 568.2,372.2 565.5,356.4 					"/>
				</g>
				<polygon fill="#F9F4E5" points="557.1,354.8 566.7,376.5 606.3,399.2 633.8,393.3 631.3,357.4 631.9,291.3 601.7,266.4 
					596.4,271.4 596.4,313.8 598.5,319.4 598.5,352.5 565.2,343.7 554.9,347.8 552.8,353.3 				"/>
				<polygon fill="#D6D1C1" points="606.3,399.2 633.8,393.3 631.3,357.4 631.9,291.3 601.7,266.4 596.4,271.4 596.4,274.9 
					621.6,295.4 607.6,308.2 604.8,320.3 612.9,308.8 627.4,298.5 627.4,372.3 615.7,360.6 624.1,377.1 622.7,378.5 604.8,360.6 
					621.9,384.9 621.9,390.5 607.3,392.4 563.9,370.1 563.9,370.1 566.7,376.5 				"/>
			</g>
			<rect x="424.4" y="438.3" fill="#9E6D43" width="223.6" height="7.9"/>
		</g>
		<g>
			<g>
				<polygon fill="#F9F4E5" points="795,253.3 799.7,272.9 789.7,283.5 791.5,302.3 799.9,294.4 821.2,274.5 838,268 843,284.5 
					816.8,337.2 775.8,341.5 753.7,317.7 765.4,270.8 				"/>
				<path fill="#D6D1C1" d="M816.8,337.2l26.2-52.7l-5-16.5l-4.7,1.8l4.1,11.9l-18.7,33l-9.4-1.6l5.6,5.6v5.9l-4.1-4.1l-8.1-2.8
					l6.5,6.5l3.1,6.6h-21.7v-8.4l-8,5.5l6.1-17.3l-10,10l4.5-13.6l-9.4,13.1l-1.9-41.8c0,0-4.1,0-8.8,0l-9.7,39.2l22.1,23.8
					L816.8,337.2z"/>
				<polygon fill="#F9F4E5" points="853.3,266.1 854.8,259.8 866.7,255.5 894.1,255.5 894.1,267.3 854.5,301 851.4,283.2 				"/>
				<polygon fill="#403734" points="813.4,440.1 813.4,315.7 838,268 853,265.8 854.5,295.1 892.6,264.5 910.3,264.5 930,282.3 
					930,440.1 				"/>
				<polygon fill="#2A2623" points="930,440.1 930,282.3 922.4,275.4 902.9,285.1 902.9,412.9 861.1,432 843,432 822.1,424.2 
					843.9,437.9 865.1,436.9 860.3,440.1 				"/>
				<polygon fill="#FDC888" points="771.3,248.3 769.6,241.9 775.3,240.2 775.3,235.8 782.5,235.8 782.5,233.3 790,231.8 
					791.7,230.1 799.5,232.7 810.3,251 810.3,257.7 803.7,264.2 798.8,265.3 				"/>
				<polygon fill="#1D4530" points="772.2,244.8 800.9,232.1 814.6,244.9 796.5,270.4 				"/>
				<polygon fill="#FDC888" points="773.5,245.5 780.9,244.9 780.9,243.4 786.9,240.5 786.9,238.3 793.7,238.3 793,235.6 800,235.6 
					800,232.5 792.8,233.7 772.5,243.6 				"/>
				<g>
					<polygon fill="#2F5A44" points="740.7,279.5 771.3,243.6 785,243.3 800.3,258.6 797.5,271.4 755.7,302.9 741.3,299 
						735.4,290.7 					"/>
					<polygon fill="#1D4530" points="758.5,300.8 758.5,287.9 750.7,278.6 741,279.1 740.7,279.5 735.4,290.7 741.3,299 
						755.7,302.9 					"/>
				</g>
				<polygon fill="#FDC888" points="790,329.1 783.1,316.6 786.2,303.5 779.1,297 771.6,297 756.9,284.5 754.4,286 749.5,286 
					746,289.5 748.2,295.1 744.3,299 748.8,303.5 746.3,309.7 764.7,329.7 769.4,328.4 782.7,343.9 792.2,334.4 				"/>
				<polygon fill="#F9F4E5" points="770,333.7 790,321 795.9,333.1 806.5,334.7 834.9,360.2 839.3,355.9 843.9,360.6 848.8,355.7 
					862.9,359 905.4,284.5 928.7,280.1 945.3,308.5 935.3,351.2 865.8,404.5 860.8,409.5 838,404.8 826.2,398.6 778.8,358.1 
					777.5,343.7 769.1,332.8 				"/>
				<polygon fill="#D6D1C1" points="919.5,281.8 937.5,310.4 927.2,347.8 862,398 859.2,386.1 855.8,396.1 852.7,376.8 849.5,398.9 
					843.6,380.8 843.6,400.8 833.3,393.3 787.2,356.8 784.1,346.2 788.7,337.2 783.1,340.6 775.6,330.2 770,333.7 769.1,332.8 
					777.5,343.7 778.8,358.1 826.2,398.6 838,404.8 860.8,409.5 865.8,404.5 935.3,351.2 945.3,308.5 928.7,280.1 				"/>
				<polygon fill="#2A2623" points="846.5,219.9 839.7,214 836.4,200.3 845.3,182.8 873,169.7 902.2,179.7 902.2,189.7 911.1,189.7 
					912.8,221.8 894.6,247.1 882.4,248.6 				"/>
				<polygon fill="#FDC888" points="862.3,278.9 868.3,269.5 890.1,255.5 890.1,235.8 896,237.7 899.9,233.8 899.9,214.6 
					890.7,217.4 889.4,206.2 868.6,213.1 870.4,208.4 844.9,214.3 848,251.7 861.1,258.6 				"/>
				<polygon fill="#2A2623" points="875.8,250.5 873.5,244.7 858.6,240.9 847.8,244.9 849.1,251.7 				"/>
			</g>
			<rect x="750" y="438.3" fill="#9E6D43" width="223.6" height="7.9"/>
		</g>
		<g>
			<g>
				<polygon fill="#2A2623" points="1124,208.6 1116.8,205.5 1113.5,200.6 1119.8,181.5 1142,171.2 1158.6,177.2 1164.2,177.2 
					1170,183 1174,184.3 1176.8,216.1 1168.6,226.8 				"/>
				<polygon fill="#71686A" points="1176.8,216.1 1174.3,187 1157.8,194.6 1166.9,219.5 1175.1,218.2 				"/>
				<polygon fill="#FDC888" points="1169.9,256.4 1168.6,245.8 1168.6,228.7 1173.3,228.7 1176.8,225.2 1176.8,212.5 1169,212.5 
					1168.3,218.1 1164,218.1 1162.1,196.2 1159.6,196.2 1159.6,192.8 1130.6,203.1 1130.6,200 1119.7,204.4 1125.3,248.6 
					1139.1,249 1139,254.6 1144,276.1 1160.2,276.1 				"/>
				<polygon fill="#E4B075" points="1139,254.6 1139.1,249 1125.3,248.6 1125.3,248.6 1154.6,247.4 1164.3,238.3 1153.1,276.1 
					1143.3,273 				"/>
				<polygon fill="#F9F4E5" points="1229.8,322.5 1208.2,262.4 1202.3,259.2 1174.9,259.2 1173.3,253.9 1167.4,253.9 1156.5,272.6 
					1148.7,272.6 1139,254.6 1131.9,254.6 1130.3,261.4 1128.8,261.4 1128.7,259.8 1118.1,261.4 1103.2,264.8 1098,267.9 
					1098,440.1 1233.2,440.1 1233.2,342.2 				"/>
				<polygon fill="#D6D1C1" points="1131.8,267.1 1140.7,289.1 1149.9,277.3 1156.6,277.3 1165.2,292.1 1175.3,263.2 1177.1,265 
					1165.8,297.4 1155.8,284.4 1149.1,284.3 1139.9,295.3 1128.1,263.2 1130.1,262.6 				"/>
				<g  a:adobe-knockout="true">
					<path fill="#2A2623"  a:adobe-knockout="false" d="M1153.5,288.6c0,0.9-0.8,1.7-1.7,1.7c-0.9,0-1.7-0.8-1.7-1.7
						c0-1,0.8-1.7,1.7-1.7C1152.7,286.9,1153.5,287.7,1153.5,288.6z"/>
					<path fill="#2A2623"  a:adobe-knockout="false" d="M1153.5,315.9c0,0.9-0.8,1.7-1.7,1.7c-0.9,0-1.7-0.8-1.7-1.7
						c0-0.9,0.8-1.7,1.7-1.7C1152.7,314.2,1153.5,315,1153.5,315.9z"/>
					<path fill="#2A2623"  a:adobe-knockout="false" d="M1153.5,343.2c0,0.9-0.8,1.7-1.7,1.7c-0.9,0-1.7-0.8-1.7-1.7
						c0-1,0.8-1.7,1.7-1.7C1152.7,341.5,1153.5,342.3,1153.5,343.2z"/>
					<path fill="#2A2623"  a:adobe-knockout="false" d="M1153.5,370.5c0,0.9-0.8,1.7-1.7,1.7c-0.9,0-1.7-0.8-1.7-1.7
						c0-1,0.8-1.7,1.7-1.7C1152.7,368.8,1153.5,369.5,1153.5,370.5z"/>
					<path fill="#2A2623"  a:adobe-knockout="false" d="M1153.5,397.8c0,0.9-0.8,1.7-1.7,1.7c-0.9,0-1.7-0.8-1.7-1.7
						c0-1,0.8-1.7,1.7-1.7C1152.7,396,1153.5,396.8,1153.5,397.8z"/>
					<path fill="#2A2623"  a:adobe-knockout="false" d="M1153.5,425c0,0.9-0.8,1.7-1.7,1.7c-0.9,0-1.7-0.8-1.7-1.7
						c0-0.9,0.8-1.7,1.7-1.7C1152.7,423.3,1153.5,424.1,1153.5,425z"/>
				</g>
				<path fill="#D6D1C1" d="M1098,408.2l9.4,1.9v-83.2L1104,281c0,0-3,17.1-6,34.1V408.2z"/>
				<polygon fill="#D6D1C1" points="1204.5,341.9 1209,333 1195.8,306.9 1201.5,259.2 1202.3,259.2 1208.2,262.4 1229.8,322.5 
					1233.2,342.2 1233.2,440.1 1204.5,440.1 				"/>
				<polygon fill="#C8A878" points="1166.5,417 1174.3,405.5 1190.8,405.5 1192.4,412.9 1179.9,416.7 				"/>
				<polygon fill="#BBB5B4" points="1212.6,385.7 1212.6,378.7 1161,378.7 1161,385.7 1185.5,407.7 1185.5,436.5 1167.1,437.9 
					1166.2,438.8 1207.5,438.8 1206.5,437.9 1188.2,436.5 1188.2,407.7 				"/>
				<polygon fill="#FDB515" points="1163.8,384.7 1210.9,384.7 1187,405.5 				"/>
				<polygon fill="#C8A878" points="1205.3,349.2 1195.6,356.6 1197.6,368 1201.9,368.6 1210.8,353.5 				"/>
				<g>
					<path fill="#00A86A" d="M1202.1,363.8c-3.2,0.9-5.2,4.2-4.3,7.4c0.1,0.5,0.4,1,0.7,1.4l6.9-1.9l-2.8,4.8
						c0.8,0.1,1.7,0.1,2.6-0.1c3.2-0.9,5.2-4.2,4.3-7.4C1208.6,364.8,1205.3,362.9,1202.1,363.8z"/>
					<path fill="#1C804E" d="M1202.1,363.8c-0.2,0.1-0.4,0.2-0.6,0.3c3-0.4,5.9,1.3,6.7,4.3c0.8,3-0.8,6-3.6,7.1c0.2,0,0.4,0,0.7,0
						c3.2-0.9,5.2-4.2,4.3-7.4C1208.6,364.8,1205.3,362.9,1202.1,363.8z"/>
					<path fill="#A0BC76" d="M1202.5,366.1c0.5,0.7,0.2,1.8-0.7,2.5c-0.9,0.7-2,0.6-2.6,0c-0.5-0.7-0.2-1.8,0.7-2.5
						C1200.9,365.4,1202,365.4,1202.5,366.1z"/>
				</g>
				<polygon fill="#F9F4E5" points="1162.7,418.2 1157.4,411.7 1143.4,412.9 1143.4,409.8 1105.7,393.9 1094.4,358.1 1100.7,300.7 
					1101,267.3 1083.5,270.8 1069.8,312.5 1064.5,396.7 1073.2,422 1082.6,429.8 1108.2,438.2 1158.7,439.7 1164.4,434 				"/>
				<polygon fill="#D6D1C1" points="1082.6,429.8 1073.2,422 1064.5,396.7 1069.8,312.5 1074.5,298.1 1071.4,390.5 1078.2,417.6 
					1105.7,432.9 1152.1,435.4 1155.2,435.4 1154.3,429.8 1158.4,417.3 1163.3,423.8 1164.4,434 1158.7,439.7 1108.2,438.2 				"/>
				<polygon fill="#FDC888" points="1173.3,410.1 1193.6,410.1 1197,413.6 1200.8,413.6 1202,418.5 1204.7,418.5 1204.7,427.3 
					1201.1,427.3 1201.1,433.5 1197.4,437.2 1169.6,437.2 1158.4,430.4 1158.4,417.3 				"/>
				<polygon fill="#F9F4E5" points="1229.1,340 1228.6,331.1 1237.4,323.9 1215.5,304 1205.1,293.9 1200.1,260 1213.3,254.9 
					1218.1,257.6 1284.3,288.4 1291.8,286.4 1307.7,300.8 1300.5,328.3 1293,330.3 1241.6,355.7 1239.4,354.5 				"/>
				<polygon fill="#D6D1C1" points="1240,349.4 1296.4,324.8 1307.4,301.8 1300.5,328.3 1293,330.3 1241.6,355.7 1239.4,354.5 
					1237.1,351.3 				"/>
				<polygon fill="#FDC888" points="1220.7,339 1203.7,343.5 1197.8,361.1 1198.2,367 1200.1,369 1202.9,361 1210.8,353.5 
					1205.5,362.7 1203.3,369.1 1205.4,370.8 1209.1,366.9 1219.1,358.3 1213.3,368.3 1207.3,373.3 1208.1,376.3 1216.7,372 
					1224.7,363.1 1218.1,375.3 1210.9,377.3 1211.8,379.9 1221,379.1 1232.9,365.5 1244.8,352.1 1233.9,336.9 				"/>
				<polygon fill="#D6D1C1" points="1287.6,298.5 1276.9,299.1 1260.6,311.9 1237,323.6 1215.5,304 1205.1,293.9 1202.6,276.6 
					1204.1,277 1206.6,268.3 1210.7,276.5 1215.6,268.1 1211.8,278.2 1213.4,292.6 1251.8,309.4 1256.3,305.6 1257.5,310.1 
					1270.3,293.8 1277.2,294.3 1271.6,295.8 1268.2,301.8 1279.1,296.6 				"/>
				<polygon fill="#2A2623" points="1147.7,280.1 1153.9,281.5 1158.6,279.9 1160.6,284.1 1154.4,285.8 1145.3,283.2 				"/>
				<polygon fill="#2A2623" points="1151.6,284.6 1160,324.2 1165.2,330.1 1171.6,331.3 1169.1,327.5 1163.1,322 1158.3,301.4 
					1166.7,316.7 1186.7,314.8 1202.9,259.5 1211.3,256.8 1211.3,254.8 1196.2,254 1185.1,258.2 1174.2,303.9 1166.1,306.6 
					1156.4,283.8 				"/>
				<polygon fill="#2A2623" points="1162.6,201.7 1157.8,233.1 1153.8,232.6 1144.2,227.8 1127.2,230.5 1123.9,237.7 1119.8,255.7 
					1122.3,262.2 1148.1,265 1157.5,257.4 1157.5,246.2 1164.7,239 1168.6,228.7 1168.3,218.1 				"/>
				<polygon fill="#FDC888" points="1141.8,239.5 1139,236.6 1131.3,237.3 1131.3,241.8 				"/>
			</g>
			<rect x="1049.5" y="438.3" fill="#9E6D43" width="223.6" height="7.9"/>
		</g>
		<g>
			<g>
				<polygon fill="#FDC888" points="408.8,717.6 411.2,723.4 417,723.9 418.9,720.7 				"/>
				<polygon fill="#F9F4E5" points="573.6,614.3 588.9,623.9 588.9,629.6 592.3,636.4 590.4,640.8 618.5,695.3 615.1,775.2 
					585.8,775.2 585.8,696.9 572.3,675.1 572.3,642 565.2,614.6 				"/>
				<path fill="#F9F4E5" d="M490,609h9.4l2.8-8.4h5.6l29.6,0.3h3.7l5.3,12.2h5.6l2.2,32.4c0,0-9.2,27-10.3,28.1
					c-1.1,1.1-17.8,15.9-17.8,15.9s-7.6,1.7-9,0.3c-1.4-1.4-16.5-34-16.5-36.8C500.6,650.1,490,609,490,609z"/>
				<polygon fill="#5B504A" points="454.8,614.6 470.7,608 493.8,609 519,680.4 548,633 548,613 564.9,613 574.5,642.3 574.5,796.1 
					446.4,796.1 446.4,657.4 				"/>
				<polygon fill="#453B38" points="477.6,623.9 469.8,608.4 454.8,614.6 446.4,657.4 446.4,796.1 476.1,796.1 477.6,795.8 				"/>
				<polygon fill="#F9F4E5" points="436.4,690 412.4,678.8 468.2,657.6 473.5,644.5 467.3,614.6 454.8,614.6 390,661.7 381.8,661.7 
					380.3,667 375.3,668.5 369.1,695.3 374.7,704.7 413,717.8 				"/>
				<path fill="#D6D1C1" d="M409.9,711.9l-27.1-10l-6.9-8.4l-3.8-11.1l-3,13l5.6,9.4l34.3,11.7C409.6,714,409.9,711.9,409.9,711.9z"
					/>
				<polygon fill="#5B9C8C" points="410.2,682.9 469.2,701.6 474.5,715 471.6,730.9 456.4,736.8 394.3,714.7 390,706.6 398.5,682.7 
									"/>
				<polygon fill="#FDC888" points="416.3,685.5 426.6,681.8 450.9,691.1 453.3,708 428,703.3 424.7,690.2 				"/>
				<polygon fill="#FDC888" points="416.8,721.5 425.7,718.3 431.7,722.5 419.6,728.1 411.2,723.4 				"/>
				<polygon fill="#FFF036" points="445.5,732.9 451.9,735.2 461.7,726.9 465.6,709.6 461.2,699.1 455,697.1 460.5,708.7 
					455.8,725.7 				"/>
				<polygon fill="#D6D1C1" points="420.2,669.8 414,664.2 397.1,662.3 409,665.7 414.1,670.9 407.7,667.6 396.2,667.6 403,669.5 
					396.8,672.6 404.6,671.6 413,678.6 468.2,657.6 472.8,646.4 				"/>
				<polygon fill="#D6D1C1" points="512.8,744.1 512.8,737.1 461.2,737.1 461.2,744.1 485.7,766.1 485.7,795 467.3,796.4 
					466.4,797.3 507.7,797.3 506.7,796.4 488.3,795 488.3,766.1 				"/>
				<polygon fill="#00A86A" points="464,743.2 511.1,743.2 487.2,763.9 				"/>
				<path fill="#00A86A" d="M504.1,729.5c-3.4,0-6.1,2.7-6.1,6.1c0,0.6,0.2,1.1,0.3,1.6h7.2l-3.9,3.9c0.8,0.4,1.6,0.6,2.5,0.6
					c3.4,0,6.1-2.7,6.1-6.1S507.4,729.5,504.1,729.5z"/>
				<path fill="#1C804E" d="M504.1,729.5c-0.2,0-0.5,0.1-0.7,0.1c3,0.4,5.4,2.8,5.4,5.9c0,3.1-2.3,5.5-5.3,5.9
					c0.2,0,0.4,0.2,0.7,0.2c3.4,0,6.1-2.7,6.1-6.1S507.4,729.5,504.1,729.5z"/>
				<path fill="#A0BC76" d="M503.9,731.9c0.3,0.8-0.3,1.8-1.3,2.2c-1,0.4-2.1,0.1-2.4-0.7c-0.3-0.8,0.3-1.8,1.3-2.2
					C502.5,730.7,503.6,731.1,503.9,731.9z"/>
				<polygon fill="#FDC888" points="592.6,781.1 581.9,791.8 571.4,791.8 576.8,797.2 587.6,797.2 595.1,793.9 598.5,797.3 
					638.8,797.3 638.8,793.6 610.4,778.3 610.4,773.9 592.6,773.9 				"/>
				<polygon fill="#453B38" points="501.9,575.6 494.7,560.3 493.8,527.9 497.8,532 499.7,522.6 555.8,521.7 560.5,529.5 
					552.7,541.3 512.5,575.6 503.1,577.5 				"/>
				<polygon fill="#FDC888" points="501.9,566.6 493.5,566.6 492.2,583.7 502.2,582.2 508.1,598.1 508.1,616.5 524,638 537.1,616.8 
					537.1,600.9 547.4,600.9 551.8,561.9 549.9,556 553.2,552.7 547.1,534.8 509.7,534.8 506.6,556.3 510,571.6 507,574.5 				"/>
				<polygon fill="#D6A670" points="537.1,615.9 537.1,600.9 520,600.9 511.4,592.3 511.4,603.7 524.3,624.9 				"/>
				<polygon fill="#453B38" points="517.5,555.3 517.5,558.2 528.4,556.3 528.4,552.9 				"/>
				<polygon fill="#453B38" points="537.8,555.3 537.8,558.2 548.7,556.3 548.7,552.9 				"/>
				<rect x="520.3" y="561.3" fill="#453B38" width="7.2" height="1.6"/>
				<rect x="538.4" y="561.3" fill="#453B38" width="7.2" height="1.6"/>
			</g>
			<rect x="364.5" y="794" fill="#9E6D43" width="297.7" height="7.9"/>
		</g>
	</g>
</g>
</svg>
