<svg width="1407" height="900" viewBox="0 0 1407 900" fill="none" xmlns="http://www.w3.org/2000/svg">
<path d="M537 80L1721.75 421.841L1502.25 1107.34L118 718.5L306.683 706.396L301.25 318.341L537 80Z" fill="#0C0B3E"/>
<rect x="301.422" y="117.341" width="251" height="354" fill="#0C0B3E"/>
<rect x="289.974" y="327.399" width="21.1154" height="363.766" fill="#CEDCE3"/>
<path d="M298.817 664.3C299.947 664.052 301.117 664.052 302.247 664.3L480.085 703.331C489.435 705.383 487.943 719.145 478.37 719.145H122.694C113.121 719.145 111.629 705.383 120.979 703.331L298.817 664.3Z" fill="#CEDCE3"/>
<path d="M309.551 336.315C304.85 341.09 297.15 341.09 292.449 336.315L60.4312 100.669C52.9619 93.0831 58.336 80.25 68.982 80.25L533.018 80.25C543.664 80.25 549.038 93.0831 541.569 100.669L309.551 336.315Z" fill="#CEDCE3"/>
<path d="M308.844 311.02C304.534 315.405 297.466 315.405 293.156 311.02L155.716 171.211C148.877 164.255 153.805 152.5 163.56 152.5L438.44 152.5C448.195 152.5 453.123 164.255 446.284 171.211L308.844 311.02Z" fill="#C45252"/>
<path fill-rule="evenodd" clip-rule="evenodd" d="M301 718.895V80H534.018C544.664 80 550.038 92.8331 542.569 100.419L312.09 334.502V665.991L481.085 703.081C490.435 705.133 488.943 718.895 479.37 718.895H301Z" fill="#170B0B" fill-opacity="0.27"/>
</svg>
